<?xml version="1.0" encoding="UTF-8"?>
<svg width="430px" height="231px" viewBox="0 0 430 231" version="1.1" xmlns="http://www.w3.org/2000/svg" xmlns:xlink="http://www.w3.org/1999/xlink" style="background: #FFFFFF;">
    <defs></defs>
    <g id="Page-4-Copy" stroke="none" stroke-width="1" fill="none" fill-rule="evenodd">
        <g id="lowres_tensor_2">
            <g id="Corner" transform="translate(90.500000, 146.000000)" stroke="#CBD1D4" stroke-linecap="square">
                <path d="M0.5,0.5 L42,0.5" id="Line-2"></path>
                <path d="M49.5,8 L49.5,14.5" id="Line-2-Copy"></path>
                <path d="M42.5,0.5 C46.5,0.5 49.5,3.5 49.5,7.5" id="Path-2"></path>
            </g>
            <g id="Corner" transform="translate(95.500000, 141.000000)" stroke="#CBD1D4" stroke-linecap="square">
                <path d="M0.5,0.5 L102,0.5" id="Line-2"></path>
                <path d="M109.5,8 L109.5,14.5" id="Line-2-Copy"></path>
                <path d="M102.5,0.5 C106.5,0.5 109.5,3.5 109.5,7.5" id="Path-2"></path>
            </g>
            <g id="Corner" transform="translate(95.500000, 136.000000)" stroke="#CBD1D4" stroke-linecap="square">
                <path d="M0.5,0.5 L167,0.5" id="Line-2"></path>
                <path d="M174.5,8 L174.5,14.5" id="Line-2-Copy"></path>
                <path d="M167.5,0.5 C171.5,0.5 174.5,3.5 174.5,7.5" id="Path-2"></path>
            </g>
            <g id="Corner" transform="translate(95.500000, 131.000000)" stroke="#CBD1D4" stroke-linecap="square">
                <path d="M0.5,0.5 L232,0.5" id="Line-2"></path>
                <path d="M239.5,8 L239.5,14.5" id="Line-2-Copy"></path>
                <path d="M232.5,0.5 C236.5,0.5 239.5,3.5 239.5,7.5" id="Path-2"></path>
            </g>
            <g id="Corner" transform="translate(95.500000, 126.000000)" stroke="#CBD1D4" stroke-linecap="square">
                <path d="M0.5,0.5 L297,0.5" id="Line-2"></path>
                <path d="M304.5,8 L304.5,14.5" id="Line-2-Copy"></path>
                <path d="M297.5,0.5 C301.5,0.5 304.5,3.5 304.5,7.5" id="Path-2"></path>
            </g>
            <rect id="Rectangle-Copy-10" fill="#F5A623" x="115" y="177" width="50" height="50"></rect>
            <rect id="Rectangle-Copy-7" fill="#A5A9AB" x="50" y="111" width="50" height="50"></rect>
            <g id="Group" transform="translate(50.000000, 111.000000)" fill-opacity="0.5">
                <rect id="Rectangle-Copy-8" fill="#FFFFFF" x="0" y="0" width="25" height="25"></rect>
                <rect id="Rectangle-Copy-9" fill="#000000" x="25" y="25" width="25" height="25"></rect>
            </g>
            <rect id="Rectangle-Copy-11" fill="#D1AA00" x="180" y="177" width="50" height="50"></rect>
            <rect id="Rectangle-Copy-12" fill="#B4B900" x="245" y="177" width="50" height="50"></rect>
            <rect id="Rectangle-Copy-13" fill="#97C600" x="310" y="177" width="50" height="50"></rect>
            <rect id="Rectangle-Copy-14" fill="#7ED321" x="375" y="177" width="50" height="50"></rect>
            <text id="unique-parameterizat" font-family="inherit" font-size="12" font-weight="normal" fill="#000000">
                <tspan x="115" y="18">unique parameterizations</tspan>
            </text>
            <text id="shared-parameterizat" font-family="inherit" font-size="12" font-weight="normal" fill="#000000">
                <tspan x="3" y="83">shared </tspan>
                <tspan x="3" y="98">parameterization</tspan>
            </text>
            <g id="bracket" transform="translate(115.000000, 28.000000)" stroke="#CBD1D4">
                <path d="M0,0.5 L310,0.5" id="Line"></path>
                <path d="M0.5,0.5 L0.5,7.5" id="Line-Copy" stroke-linecap="square"></path>
                <path d="M309.5,0.5 L309.5,7.5" id="Line-Copy-2" stroke-linecap="square"></path>
            </g>
            <g id="Group-Copy" transform="translate(115.000000, 177.000000)" fill-opacity="0.5">
                <rect id="Rectangle-Copy-8" fill="#FFFFFF" x="0" y="0" width="25" height="25"></rect>
                <rect id="Rectangle-Copy-9" fill="#000000" x="25" y="25" width="25" height="25"></rect>
            </g>
            <g id="Group-Copy-2" transform="translate(180.000000, 177.000000)" fill-opacity="0.5">
                <rect id="Rectangle-Copy-8" fill="#FFFFFF" x="0" y="0" width="25" height="25"></rect>
                <rect id="Rectangle-Copy-9" fill="#000000" x="25" y="25" width="25" height="25"></rect>
            </g>
            <g id="Group-Copy-3" transform="translate(245.000000, 177.000000)" fill-opacity="0.5">
                <rect id="Rectangle-Copy-8" fill="#FFFFFF" x="0" y="0" width="25" height="25"></rect>
                <rect id="Rectangle-Copy-9" fill="#000000" x="25" y="25" width="25" height="25"></rect>
            </g>
            <g id="Group-Copy-4" transform="translate(310.000000, 177.000000)" fill-opacity="0.5">
                <rect id="Rectangle-Copy-8" fill="#FFFFFF" x="0" y="0" width="25" height="25"></rect>
                <rect id="Rectangle-Copy-9" fill="#000000" x="25" y="25" width="25" height="25"></rect>
            </g>
            <g id="Group-Copy-5" transform="translate(375.000000, 177.000000)" fill-opacity="0.5">
                <rect id="Rectangle-Copy-8" fill="#FFFFFF" x="0" y="0" width="25" height="25"></rect>
                <rect id="Rectangle-Copy-9" fill="#000000" x="25" y="25" width="25" height="25"></rect>
            </g>
            <g id="Arrow" transform="translate(397.000000, 84.000000)">
                <path d="M3,0 L3,85.501462" id="Line-2" stroke="#CBD1D4" stroke-width="1" stroke-linecap="square"></path>
                <polygon id="Triangle" fill="#CBD1D4" fill-rule="evenodd" transform="translate(3.000000, 87.500000) scale(1, -1) translate(-3.000000, -87.500000) " points="3 84 6 91 0 91"></polygon>
            </g>
            <rect id="Rectangle" fill="#FFFFFF" x="138" y="124" width="4" height="20"></rect>
            <g id="Arrow" transform="translate(137.000000, 84.000000)">
                <path d="M3,0 L3,85.501462" id="Line-2" stroke="#CBD1D4" stroke-width="1" stroke-linecap="square"></path>
                <polygon id="Triangle" fill="#CBD1D4" fill-rule="evenodd" transform="translate(3.000000, 87.500000) scale(1, -1) translate(-3.000000, -87.500000) " points="3 84 6 91 0 91"></polygon>
            </g>
            <rect id="Rectangle" fill="#FFFFFF" x="203" y="120" width="4" height="20"></rect>
            <g id="Arrow" transform="translate(202.000000, 84.000000)">
                <path d="M3,0 L3,85.501462" id="Line-2" stroke="#CBD1D4" stroke-width="1" stroke-linecap="square"></path>
                <polygon id="Triangle" fill="#CBD1D4" fill-rule="evenodd" transform="translate(3.000000, 87.500000) scale(1, -1) translate(-3.000000, -87.500000) " points="3 84 6 91 0 91"></polygon>
            </g>
            <rect id="Rectangle" fill="#FFFFFF" x="268" y="114" width="4" height="20"></rect>
            <g id="Arrow" transform="translate(267.000000, 84.000000)">
                <path d="M3,0 L3,85.501462" id="Line-2" stroke="#CBD1D4" stroke-width="1" stroke-linecap="square"></path>
                <polygon id="Triangle" fill="#CBD1D4" fill-rule="evenodd" transform="translate(3.000000, 87.500000) scale(1, -1) translate(-3.000000, -87.500000) " points="3 84 6 91 0 91"></polygon>
            </g>
            <rect id="Rectangle" fill="#FFFFFF" x="333" y="111" width="4" height="20"></rect>
            <g id="Arrow" transform="translate(332.000000, 84.000000)">
                <path d="M3,0 L3,85.501462" id="Line-2" stroke="#CBD1D4" stroke-width="1" stroke-linecap="square"></path>
                <polygon id="Triangle" fill="#CBD1D4" fill-rule="evenodd" transform="translate(3.000000, 87.500000) scale(1, -1) translate(-3.000000, -87.500000) " points="3 84 6 91 0 91"></polygon>
            </g>
            <rect id="Rectangle-Copy-2" fill="#F5A623" x="115" y="46" width="50" height="50"></rect>
            <rect id="Rectangle-Copy-3" fill="#D1AA00" x="180" y="46" width="50" height="50"></rect>
            <rect id="Rectangle-Copy-4" fill="#B4B900" x="245" y="46" width="50" height="50"></rect>
            <rect id="Rectangle-Copy-5" fill="#97C600" x="310" y="46" width="50" height="50"></rect>
            <rect id="Rectangle-Copy-6" fill="#7BD500" x="375" y="46" width="50" height="50"></rect>
        </g>
    </g>
</svg>